# xmcd CD database file
#
# Track frame offsets:
#	150
#	12865
#	24680
#	36530
#	49624
#	62658
#	75326
#	88396
#	101549
#	114690
#	126256
#	140810
#	152637
#	166145
#	177960
#	190639
#	201730
#
# Disc length: 2859 seconds
#
# Revision: 4
# Processed by: cddbd v1.5.1PL2 Copyright (c) Steve Scherf et al.
# Submitted via: CDex 1.51
#
DISCID=ec0b2911
DTITLE=Big Joe Turner - Rocks In My Bed
DYEAR=2005
DGENRE=Blues
TTITLE0=Roll 'Em Pete
TTITLE1=Goin' Away Blues
TTITLE2=It's All Right Baby
TTITLE3=Cherry Red
TTITLE4=Piney Brown Blues
TTITLE5=Careless Love
TTITLE6=Nobody In Mind
TTITLE7=Somebody's Got To Go
TTITLE8=Ice Man
TTITLE9=Chewed Up Grass
TTITLE10=Rocks In My Bed
TTITLE11=Blues On Central Avenue
TTITLE12=Goin' To Chicago Blues
TTITLE13=Blues On Central Avenue
TTITLE14=Sun Risin' Blues
TTITLE15=Blues In The Night
TTITLE16=Cry Baby Blues
EXTD=YEAR: 2005
EXTT0=
EXTT1=
EXTT2=
EXTT3=
EXTT4=
EXTT5=
EXTT6=
EXTT7=
EXTT8=
EXTT9=
EXTT10=
EXTT11=
EXTT12=
EXTT13=
EXTT14=
EXTT15=
EXTT16=
PLAYORDER=
